<svg width="75" height="75" viewBox="0 0 75 75" fill="none" xmlns="http://www.w3.org/2000/svg">
<path d="M39.8438 16.4062C38.9167 16.4062 38.0104 16.6812 37.2395 17.1962C36.4687 17.7113 35.8679 18.4434 35.5131 19.2999C35.1583 20.1565 35.0655 21.0989 35.2463 22.0082C35.4272 22.9175 35.8736 23.7528 36.5292 24.4083C37.1848 25.0639 38.02 25.5103 38.9293 25.6912C39.8386 25.872 40.7811 25.7792 41.6376 25.4244C42.4941 25.0696 43.2262 24.4688 43.7413 23.698C44.2563 22.9271 44.5313 22.0208 44.5313 21.0938C44.5313 19.8505 44.0374 18.6583 43.1583 17.7792C42.2792 16.9001 41.087 16.4063 39.8438 16.4062ZM39.8438 23.4375C39.3802 23.4375 38.9271 23.3 38.5416 23.0425C38.1562 22.785 37.8558 22.4189 37.6784 21.9907C37.501 21.5624 37.4546 21.0912 37.545 20.6365C37.6355 20.1819 37.8587 19.7642 38.1865 19.4365C38.5143 19.1087 38.9319 18.8855 39.3865 18.795C39.8412 18.7046 40.3124 18.751 40.7407 18.9284C41.1689 19.1058 41.535 19.4062 41.7925 19.7916C42.0501 20.1771 42.1875 20.6302 42.1875 21.0938C42.1875 21.7154 41.9406 22.3115 41.501 22.751C41.0615 23.1906 40.4654 23.4375 39.8438 23.4375Z" fill="white"/>
<path d="M50.3906 22.2656C49.6953 22.2656 49.0156 22.4718 48.4375 22.8581C47.8593 23.2444 47.4087 23.7935 47.1426 24.4359C46.8765 25.0783 46.8069 25.7852 46.9426 26.4671C47.0782 27.1491 47.413 27.7755 47.9047 28.2672C48.3964 28.7588 49.0228 29.0937 49.7048 29.2293C50.3867 29.365 51.0936 29.2954 51.736 29.0293C52.3784 28.7632 52.9275 28.3126 53.3138 27.7344C53.7001 27.1563 53.9063 26.4766 53.9063 25.7812C53.9063 24.8488 53.5359 23.9546 52.8765 23.2953C52.2172 22.636 51.323 22.2656 50.3906 22.2656ZM50.3906 26.9531C50.1589 26.9531 49.9323 26.8844 49.7396 26.7556C49.5469 26.6269 49.3967 26.4438 49.308 26.2297C49.2193 26.0156 49.1961 25.7799 49.2413 25.5526C49.2865 25.3253 49.3981 25.1165 49.562 24.9526C49.7259 24.7887 49.9347 24.6771 50.162 24.6319C50.3893 24.5867 50.625 24.6099 50.8391 24.6986C51.0532 24.7873 51.2362 24.9375 51.365 25.1302C51.4938 25.3229 51.5625 25.5495 51.5625 25.7812C51.5625 26.092 51.439 26.3901 51.2193 26.6099C50.9995 26.8297 50.7014 26.9531 50.3906 26.9531Z" fill="white"/>
<path d="M50.3906 35.1563C50.3906 35.8516 50.5968 36.5313 50.9831 37.1094C51.3694 37.6876 51.9185 38.1382 52.5609 38.4043C53.2033 38.6704 53.9102 38.74 54.5921 38.6043C55.2741 38.4687 55.9005 38.1338 56.3922 37.6422C56.8838 37.1505 57.2187 36.5241 57.3543 35.8421C57.49 35.1602 57.4204 34.4533 57.1543 33.8109C56.8882 33.1685 56.4376 32.6194 55.8594 32.2331C55.2813 31.8468 54.6016 31.6406 53.9063 31.6406C52.9738 31.6406 52.0796 32.011 51.4203 32.6703C50.761 33.3296 50.3906 34.2238 50.3906 35.1563ZM53.9063 33.9844C54.138 33.9844 54.3646 34.0531 54.5573 34.1819C54.75 34.3106 54.9002 34.4937 54.9889 34.7078C55.0776 34.9219 55.1008 35.1576 55.0556 35.3849C55.0104 35.6122 54.8988 35.821 54.7349 35.9849C54.571 36.1488 54.3622 36.2604 54.1349 36.3056C53.9076 36.3508 53.6719 36.3276 53.4578 36.2389C53.2437 36.1502 53.0606 36 52.9319 35.8073C52.8031 35.6146 52.7344 35.388 52.7344 35.1563C52.7344 34.8455 52.8578 34.5474 53.0776 34.3276C53.2974 34.1078 53.5955 33.9844 53.9063 33.9844Z" fill="white"/>
<path d="M69.1406 2.34375H5.85938C4.92783 2.34653 4.03523 2.71782 3.37653 3.37653C2.71782 4.03523 2.34653 4.92783 2.34375 5.85938V62.1094C2.34653 63.0409 2.71782 63.9335 3.37653 64.5922C4.03523 65.2509 4.92783 65.6222 5.85938 65.625H28.2773L24.8086 70.8399C24.6877 71.0136 24.6182 71.2177 24.6078 71.4291C24.5974 71.6405 24.6467 71.8505 24.75 72.0352C24.848 72.2236 24.9962 72.3814 25.1781 72.491C25.3601 72.6006 25.5688 72.6578 25.7812 72.6563H49.2188C49.4312 72.6578 49.6399 72.6006 49.8219 72.491C50.0038 72.3814 50.152 72.2236 50.25 72.0352C50.3533 71.8505 50.4026 71.6405 50.3922 71.4291C50.3818 71.2177 50.3123 71.0136 50.1914 70.8399L46.7227 65.625H69.1406C70.0722 65.6222 70.9648 65.2509 71.6235 64.5922C72.2822 63.9335 72.6535 63.0409 72.6562 62.1094V5.85938C72.6535 4.92783 72.2822 4.03523 71.6235 3.37653C70.9648 2.71782 70.0722 2.34653 69.1406 2.34375ZM47.0273 70.3125H27.9727L31.1016 65.625H43.8984L47.0273 70.3125ZM70.3125 62.1094C70.3125 62.4202 70.189 62.7183 69.9693 62.938C69.7495 63.1578 69.4514 63.2813 69.1406 63.2813H5.85938C5.54857 63.2813 5.2505 63.1578 5.03073 62.938C4.81097 62.7183 4.6875 62.4202 4.6875 62.1094V58.5938H70.3125V62.1094ZM70.3125 56.25H4.6875V5.85938C4.6875 5.54857 4.81097 5.2505 5.03073 5.03073C5.2505 4.81097 5.54857 4.6875 5.85938 4.6875H69.1406C69.4514 4.6875 69.7495 4.81097 69.9693 5.03073C70.189 5.2505 70.3125 5.54857 70.3125 5.85938V56.25Z" fill="white"/>
<path d="M42.5743 43.9455L29.6836 21.6213C29.6068 21.4868 29.5041 21.3688 29.3814 21.2743C29.2587 21.1798 29.1184 21.1105 28.9688 21.0705C28.668 20.9914 28.3482 21.0335 28.0782 21.1877L24.0235 23.5314C23.7546 23.6883 23.5584 23.9447 23.4772 24.2452C23.3961 24.5457 23.4365 24.866 23.5899 25.1369L36.4805 47.4611C36.641 47.7281 36.8962 47.9248 37.1954 48.0119C37.2953 48.0351 37.3975 48.0469 37.5 48.047C37.7047 48.0438 37.9056 47.9915 38.086 47.8947L42.1407 45.551C42.275 45.4744 42.3928 45.372 42.4873 45.2497C42.5819 45.1275 42.6513 44.9877 42.6916 44.8385C42.7319 44.6892 42.7423 44.5335 42.7221 44.3802C42.702 44.227 42.6517 44.0792 42.5743 43.9455ZM37.9336 45.2697L26.2149 24.9728L28.2422 23.801L39.961 44.0978L37.9336 45.2697Z" fill="white"/>
<path d="M27.1875 14.9414L26.0743 13.0195C25.5433 12.1016 24.7739 11.3444 23.8477 10.8281L19.0078 8.14452C18.8301 8.04561 18.6296 7.99468 18.4262 7.99673C18.2228 7.99879 18.0234 8.05376 17.8477 8.15624C17.6733 8.2587 17.528 8.40395 17.4255 8.57826C17.3229 8.75257 17.2666 8.95016 17.2618 9.15234L17.168 14.6836C17.1539 15.7436 17.4251 16.7878 17.9532 17.707L19.0664 19.6289C19.5336 20.436 20.3017 21.0248 21.2024 21.2665C22.103 21.5081 23.0627 21.3828 23.8711 20.918L25.8985 19.7461C26.2988 19.5154 26.6497 19.2081 26.9312 18.8418C27.2127 18.4754 27.4192 18.0572 27.5389 17.6109C27.6586 17.1647 27.6892 16.6993 27.6289 16.2412C27.5686 15.7831 27.4186 15.3415 27.1875 14.9414ZM25.2657 17.0039C25.2286 17.1532 25.1618 17.2935 25.0691 17.4164C24.9765 17.5392 24.86 17.6421 24.7266 17.7187L22.6993 18.8906C22.4284 19.044 22.108 19.0844 21.8075 19.0033C21.507 18.9221 21.2506 18.7259 21.0938 18.457L19.9805 16.5351C19.662 15.9836 19.4999 15.3556 19.5118 14.7187L19.5703 11.1445L22.711 12.8789C23.2671 13.1871 23.7289 13.6408 24.0469 14.1914L25.1485 16.1133C25.2279 16.2458 25.2793 16.3932 25.2995 16.5464C25.3197 16.6996 25.3081 16.8553 25.2657 17.0039Z" fill="white"/>
<path d="M33.2029 14.0249C37.363 12.5557 41.8931 12.509 46.0826 13.8921C50.2721 15.2752 53.8839 18.01 56.3515 21.6673C58.8191 25.3246 60.0029 29.6975 59.7171 34.1002C59.4313 38.5028 57.6921 42.686 54.7724 45.9936C54.3307 44.554 53.4393 43.2937 52.2289 42.3978C51.0186 41.5019 49.5529 41.0174 48.047 41.0155C47.7362 41.0155 47.4382 41.139 47.2184 41.3587C46.9986 41.5785 46.8751 41.8766 46.8751 42.1874C46.8751 42.4982 46.9986 42.7963 47.2184 43.016C47.4382 43.2358 47.7362 43.3593 48.047 43.3593C49.2902 43.3593 50.4825 43.8531 51.3616 44.7322C52.2407 45.6113 52.7345 46.8036 52.7345 48.0468C52.7352 48.1581 52.7274 48.2694 52.7111 48.3796C52.676 48.6175 52.7149 48.8604 52.8226 49.0754C52.9302 49.2904 53.1014 49.4671 53.3129 49.5815C53.5244 49.6959 53.766 49.7424 54.0049 49.7148C54.2437 49.6872 54.4683 49.5868 54.6482 49.4272C58.4991 45.9945 61.0385 41.3311 61.8326 36.2339C62.6267 31.1366 61.6262 25.9217 59.002 21.4803C56.3778 17.0388 52.2928 13.6464 47.4449 11.8826C42.597 10.1189 37.2871 10.0932 32.4224 11.81C32.1292 11.9135 31.8891 12.1293 31.7549 12.4098C31.6207 12.6904 31.6035 13.0127 31.707 13.3059C31.8105 13.5992 32.0262 13.8393 32.3068 13.9735C32.5873 14.1076 32.9096 14.1249 33.2029 14.0214V14.0249Z" fill="white"/>
<path d="M30.7722 44.5711C28.9879 44.0932 27.3153 43.2685 25.8498 42.1441C24.3844 41.0197 23.1548 39.6176 22.2313 38.0179C21.3078 36.4182 20.7085 34.6522 20.4677 32.8208C20.2269 30.9895 20.3492 29.1286 20.8277 27.3445C20.8723 27.1944 20.8864 27.037 20.8692 26.8814C20.8519 26.7258 20.8037 26.5752 20.7273 26.4385C20.6509 26.3019 20.5479 26.1819 20.4243 26.0858C20.3008 25.9896 20.1592 25.9191 20.008 25.8786C19.8568 25.838 19.699 25.8282 19.5439 25.8496C19.3889 25.871 19.2396 25.9233 19.1051 26.0034C18.9706 26.0835 18.8534 26.1897 18.7606 26.3157C18.6678 26.4418 18.6012 26.5852 18.5648 26.7375C17.4436 30.9404 18.0354 35.4165 20.2104 39.1836C22.3854 42.9507 25.9659 45.7012 30.1663 46.8316C30.2648 46.859 30.3665 46.8736 30.4687 46.875C30.753 46.8748 31.0275 46.7713 31.2411 46.5838C31.4548 46.3963 31.593 46.1375 31.63 45.8556C31.6669 45.5737 31.6002 45.288 31.4422 45.0517C31.2842 44.8154 31.0456 44.6446 30.771 44.5711H30.7722Z" fill="white"/>
</svg>
