<svg width="31" height="35" viewBox="0 0 31 35" fill="none" xmlns="http://www.w3.org/2000/svg">
<path d="M12.9051 20.0293C12.9051 21.3486 11.9364 21.7656 10.7462 21.7656H7.62545V18.1494H10.8085C12.0955 18.1562 12.9051 18.6826 12.9051 20.0293ZM12.3723 14.4033C12.3723 13.1934 11.4243 12.9062 10.3725 12.9062H7.63237V15.9688H10.5871C11.6319 15.9688 12.3723 15.5176 12.3723 14.4033ZM21.527 15.9893C20.2607 15.9893 19.4165 16.7686 19.3335 18.0195H23.6375C23.5199 16.7549 22.8556 15.9893 21.527 15.9893ZM31 5.46875V29.5312C31 31.3428 29.5123 32.8125 27.6786 32.8125H3.32143C1.48772 32.8125 0 31.3428 0 29.5312V5.46875C0 3.65723 1.48772 2.1875 3.32143 2.1875H27.6786C29.5123 2.1875 31 3.65723 31 5.46875ZM18.8007 12.6465H24.1842V11.3545H18.8007V12.6465ZM15.8252 20.1865C15.8252 18.5391 15.0364 17.1172 13.4033 16.6592C14.5935 16.0986 15.2163 15.4492 15.2163 14.1299C15.2163 11.5186 13.2442 10.8828 10.9676 10.8828H4.70536V24.0078H11.1475C13.5625 23.9941 15.8252 22.8525 15.8252 20.1865ZM26.2946 19.1748C26.2946 16.3652 24.627 14.0205 21.617 14.0205C18.683 14.0205 16.6971 16.1943 16.6971 19.0518C16.6971 22.0117 18.5862 24.042 21.617 24.042C23.9143 24.042 25.402 23.0234 26.1217 20.8428H23.7897C23.5337 21.6562 22.5027 22.0801 21.7 22.0801C20.15 22.0801 19.3404 21.1846 19.3404 19.667H26.2739C26.2808 19.5098 26.2946 19.3389 26.2946 19.1748Z" fill="#854777"/>
</svg>
