<svg width="19" height="19" viewBox="0 0 19 19" fill="none" xmlns="http://www.w3.org/2000/svg">
<path d="M10.59 9.63029L18.7746 1.86099C18.919 1.72338 19 1.53711 18.9998 1.34298C18.9997 1.14885 18.9184 0.962688 18.7739 0.825262C18.4845 0.552195 17.9747 0.550816 17.6824 0.826641L9.50001 8.59594L1.31467 0.824572C1.02382 0.552195 0.5141 0.553574 0.224701 0.825951C0.152869 0.8938 0.096006 0.974536 0.0574295 1.06345C0.018853 1.15236 -0.000663965 1.24767 1.7236e-05 1.34381C1.7236e-05 1.53965 0.0800019 1.72307 0.224701 1.85892L8.40931 9.6296L0.225428 17.401C0.0810092 17.5388 0.000132881 17.7253 0.000541829 17.9196C0.000950778 18.1139 0.0826118 18.3001 0.22761 18.4374C0.367947 18.5691 0.566454 18.6449 0.771505 18.6449H0.775868C0.981647 18.6442 1.18015 18.5677 1.31758 18.4346L9.50001 10.6653L17.6853 18.4367C17.83 18.5732 18.0235 18.6491 18.2285 18.6491C18.3299 18.6493 18.4304 18.6306 18.5241 18.5939C18.6178 18.5573 18.703 18.5034 18.7747 18.4354C18.8464 18.3674 18.9032 18.2866 18.9419 18.1978C18.9805 18.1089 19.0003 18.0136 19 17.9174C19 17.7223 18.92 17.5382 18.7746 17.4023L10.59 9.63029Z" fill="#9B9999"/>
</svg>
