<svg width="75" height="75" viewBox="0 0 75 75" fill="none" xmlns="http://www.w3.org/2000/svg">
<g clip-path="url(#clip0)">
<path d="M71.4549 25.3957L51.7485 37.1421C50.2937 38.0093 49.7109 39.7935 50.2978 41.3253C49.4191 41.6938 48.4358 41.7111 47.5351 41.3631L44.9858 40.3615C43.9688 39.9618 42.8708 39.8922 41.8112 40.1606L37.9053 41.149C37.7539 41.1873 37.6055 41.2321 37.4603 41.2829C35.0741 39.9206 33.6526 39.5134 31.1345 40.4871L28.8738 41.361C27.8055 41.7739 26.6276 41.6759 25.6399 41.0909L24.8848 40.6457C25.1014 39.2947 24.495 37.8835 23.2515 37.1423L3.54507 25.3957C1.98252 24.4646 0 25.5884 0 27.4097V49.4075C0 50.9266 0.810498 52.3532 2.11523 53.1309L10.7194 58.2597C12.3199 59.2135 14.3773 58.719 15.3735 57.1636L15.7414 57.3807L14.6257 58.9347C13.3796 60.6701 13.7758 63.0832 15.5115 64.3295C16.3695 64.9454 17.4151 65.1777 18.4396 64.9958C18.5965 66.0325 19.1549 66.9451 20.0073 67.5571C20.8629 68.1713 21.9151 68.4025 22.9368 68.2213C23.0873 69.2165 23.6227 70.1526 24.503 70.7846C25.6893 71.6361 27.1601 71.7055 28.3541 71.1666C28.6167 71.8946 29.0921 72.5261 29.7343 72.9873C31.4027 74.1849 33.7163 73.8616 34.9957 72.2764L37.8857 73.9885C38.5025 74.354 39.1805 74.5277 39.85 74.5277C41.1721 74.5277 42.4619 73.8504 43.1832 72.6328C43.4877 72.1188 43.6592 71.562 43.7079 71.0031L43.8204 71.0698C44.7091 71.5963 45.7497 71.7454 46.7499 71.489C47.7505 71.233 48.5915 70.6025 49.1178 69.7141C49.4433 69.1648 49.6244 68.5574 49.6548 67.9375C50.2988 68.1174 50.9817 68.1257 51.6469 67.9557C52.6475 67.6996 53.4885 67.0692 54.0148 66.1807C54.3211 65.6639 54.4997 65.0957 54.5448 64.5137C56.2983 65.256 58.3794 64.6046 59.376 62.9226C60.2511 61.4455 60.0268 59.6166 58.9482 58.393L60.0809 57.7314C61.1547 58.8155 62.8833 59.0924 64.2807 58.2596L66.3608 57.0196C66.8821 56.7089 67.0528 56.0345 66.7421 55.5134C66.4313 54.992 65.7564 54.8216 65.2359 55.1321L63.1559 56.3721C62.6654 56.6647 62.0684 56.5755 61.6835 56.2235C61.6764 56.1616 52.4413 40.7282 52.4413 40.7282C52.0934 40.1409 52.2873 39.3789 52.8735 39.0294L72.5799 27.283C72.6804 27.2238 72.8027 27.2944 72.8027 27.4095V49.4074C72.8027 50.1564 72.403 50.8599 71.7598 51.2433L69.6828 52.4814C69.1614 52.7921 68.9908 53.4665 69.3015 53.9875C69.612 54.5089 70.2869 54.6789 70.8076 54.3688L72.8846 53.1307C74.1894 52.353 74.9999 50.9264 74.9999 49.4074V27.4097C75 25.5909 73.0194 24.463 71.4549 25.3957ZM42.3501 42.2906C42.9617 42.1359 43.5952 42.176 44.1823 42.4066L46.7372 43.4103C48.2621 43.9999 49.9274 43.9352 51.3803 43.2489L58.8713 55.8934L57.6574 56.6027C57.4368 56.7334 57.2253 56.8781 57.024 57.036L41.0029 47.5484C40.6632 47.3472 40.2417 47.3439 39.8991 47.5393C39.5562 47.7347 39.3445 48.099 39.3445 48.4938V48.7145C39.3445 49.496 39.0401 50.2308 38.4873 50.7832C37.9349 51.3353 37.2007 51.6391 36.4201 51.6391C36.2933 51.6344 36.1815 51.5326 36.1813 51.4003V46.1862C36.1813 45.0502 36.8172 44.0362 37.7903 43.5284C37.8387 43.5089 37.8858 43.4859 37.9313 43.4595C38.0941 43.3851 38.2657 43.3245 38.4442 43.2792L42.3501 42.2906ZM12.7862 56.509C12.4644 56.5904 12.1298 56.5425 11.8444 56.3721L3.24023 51.2434C2.59688 50.8599 2.19727 50.1565 2.19727 49.4075V27.4097C2.19727 27.3862 2.19727 27.324 2.27183 27.2817C2.29966 27.2658 2.32471 27.2603 2.34609 27.2603C2.38184 27.2603 2.40747 27.2755 2.42007 27.283L22.1266 39.0294C22.7128 39.3789 22.9069 40.1409 22.5589 40.7283L13.5478 55.9388C13.3786 56.2245 13.108 56.4271 12.7862 56.509ZM18.0363 62.8356C17.5966 62.908 17.1551 62.8044 16.7928 62.5445C16.4309 62.2847 16.1917 61.8994 16.1194 61.4597C16.0472 61.0198 16.1505 60.5783 16.4105 60.2163L17.9779 58.033C18.0161 57.9797 18.0571 57.9294 18.1002 57.8821C18.1327 57.8529 18.1636 57.8214 18.1929 57.7881C18.7623 57.2547 19.6493 57.179 20.3064 57.6507C21.0538 58.1872 21.2253 59.2318 20.6887 59.9792C20.6878 59.9803 20.687 59.9817 20.6861 59.9828L19.1212 62.1625C18.8615 62.5243 18.4761 62.7634 18.0363 62.8356ZM21.2886 65.772C20.9266 65.5122 20.6874 65.1269 20.6152 64.6872C20.543 64.2473 20.6462 63.8058 20.9062 63.4438L22.4736 61.2605C22.4736 61.2605 22.4736 61.2603 22.4738 61.2603L24.2035 58.8509C24.4633 58.4888 24.8486 58.2498 25.2885 58.1774C25.38 58.1623 25.4714 58.155 25.5624 58.155C25.9085 58.155 26.2452 58.2627 26.532 58.4686C27.2793 59.005 27.4509 60.0496 26.9143 60.7971L23.6169 65.39C23.0804 66.1372 22.0358 66.3082 21.2886 65.772ZM27.0277 69.2906C26.5881 69.3628 26.1464 69.2594 25.7843 68.9995C25.037 68.4631 24.8654 67.4185 25.402 66.6712C25.4029 66.6698 25.4038 66.6687 25.4046 66.6674L28.6994 62.0781C29.2358 61.3306 30.2804 61.1595 31.0279 61.6958C31.3898 61.9557 31.6291 62.3409 31.7013 62.7808C31.7735 63.2206 31.6701 63.6622 31.4102 64.0242L28.1128 68.6171C27.8528 68.9792 27.4674 69.2184 27.0277 69.2906ZM31.0156 71.2022C30.6536 70.9423 30.4144 70.5571 30.3422 70.1172C30.27 69.6775 30.3732 69.236 30.6333 68.874C30.6344 68.8724 30.6355 68.8709 30.6365 68.8693L31.7309 67.345C32.2679 66.5991 33.3113 66.4281 34.0581 66.9643C34.8054 67.5008 34.977 68.5454 34.4404 69.2928L33.8134 70.1661C33.8068 70.1749 33.8004 70.184 33.7941 70.1931L33.3439 70.8202C32.8077 71.5673 31.7632 71.7389 31.0156 71.2022ZM57.4856 61.8027C57.0164 62.5945 55.99 62.8571 55.1988 62.388L52.6589 60.8834C52.6578 60.8828 52.6567 60.8821 52.6556 60.8815L44.7894 56.2213C44.2671 55.912 43.5933 56.0844 43.2842 56.6064C42.975 57.1284 43.1473 57.8024 43.6693 58.1115L51.5391 62.7738C51.5391 62.7738 51.5391 62.7738 51.5392 62.7739L51.5402 62.7745C52.3312 63.244 52.5933 64.2694 52.1246 65.0609C51.8972 65.4445 51.5342 65.7167 51.1022 65.8271C50.6703 65.9376 50.221 65.8736 49.8374 65.6461L47.7671 64.4197C47.7653 64.4187 47.7639 64.4176 47.7621 64.4166C47.7611 64.416 47.7599 64.4153 47.7589 64.4147L41.9638 60.9816C41.4416 60.6722 40.7679 60.8447 40.4587 61.3667C40.1495 61.8887 40.3217 62.5627 40.8438 62.8718L46.639 66.3051C46.6402 66.3058 46.6414 66.3066 46.6424 66.3071C47.0259 66.5343 47.2982 66.8973 47.4086 67.3293C47.5192 67.7613 47.4548 68.2106 47.2276 68.5942C47.0004 68.9778 46.6374 69.25 46.2053 69.3605C45.7734 69.4711 45.324 69.4068 44.9405 69.1796L41.8335 67.3388C41.8314 67.3377 41.8295 67.3363 41.8276 67.3352L39.5553 65.9891C39.0335 65.6802 38.3596 65.8523 38.0502 66.3745C37.7411 66.8965 37.9134 67.5704 38.4356 67.8797L40.7077 69.2257L40.7108 69.2275C41.5005 69.6974 41.7618 70.7217 41.2934 71.5128C40.8239 72.3047 39.7979 72.567 39.0063 72.0983L36.2867 70.4871C37.4555 68.7622 37.0428 66.4018 35.3401 65.1792C34.8196 64.8057 34.2371 64.5804 33.6429 64.4948C33.9057 63.8452 33.9863 63.1341 33.8698 62.425C33.7025 61.4061 33.1484 60.5132 32.3096 59.9111C31.4294 59.2793 30.3712 59.0713 29.3801 59.2469C29.2296 58.2517 28.6942 57.3155 27.8139 56.6836C26.975 56.0814 25.9522 55.842 24.933 56.0091C24.0819 56.1489 23.319 56.5585 22.7398 57.1784C22.47 56.6736 22.0837 56.2214 21.5883 55.8656C20.2753 54.9231 18.5665 54.9237 17.2748 55.7342L16.4958 55.2744L23.9706 42.6572L24.5225 42.9826C25.4508 43.5326 26.4863 43.8117 27.5295 43.8117C28.2492 43.8117 28.9726 43.6788 29.6667 43.4105L31.9273 42.5365C33.2786 42.0145 34.0043 41.9897 35.3687 42.6534C34.5013 43.5893 33.9845 44.8381 33.9845 46.1862V51.4003C33.9845 52.7425 35.0757 53.8353 36.417 53.8363H36.4204C37.7878 53.8363 39.0735 53.304 40.0409 52.3374C40.628 51.7507 41.0552 51.0465 41.3005 50.2781L56.6029 59.3399C56.6534 59.3699 56.7056 59.3953 56.7589 59.4164C56.8028 59.4527 56.85 59.4861 56.9007 59.5161C57.692 59.9852 57.9546 61.011 57.4856 61.8027Z" fill="white"/>
<path d="M24.9062 29.0995H50.0935C52.374 29.0995 54.2292 27.2442 54.2292 24.9638V9.97813C54.2292 7.69766 52.374 5.84244 50.0935 5.84244H44.0302V4.10162C44.0302 2.10093 42.4028 0.473053 40.4022 0.473053H34.5972C32.5968 0.473053 30.9692 2.10079 30.9692 4.10162V5.84244H24.906C22.6255 5.84244 20.7703 7.69766 20.7703 9.97813V18.2333C20.7703 18.8401 21.2622 19.3319 21.8689 19.3319C22.4756 19.3319 22.9675 18.8401 22.9675 18.2333V16.1914C24.1368 17.2407 25.6813 17.8798 27.3722 17.8798H28.232V19.0883C28.232 19.6952 28.7239 20.1869 29.3307 20.1869C29.9374 20.1869 30.4293 19.6952 30.4293 19.0883V17.8798H44.5699V19.0883C44.5699 19.6952 45.0616 20.1869 45.6685 20.1869C46.2754 20.1869 46.7671 19.6952 46.7671 19.0883V17.8798H47.6269C49.3179 17.8798 50.8624 17.2407 52.0316 16.1914V24.9636C52.0316 26.0325 51.162 26.9021 50.0932 26.9021H24.9062C23.8374 26.9021 22.9678 26.0324 22.9678 24.9636V23.3693C22.9678 22.7624 22.4759 22.2707 21.8692 22.2707C21.2625 22.2707 20.7706 22.7624 20.7706 23.3693V24.9636C20.7706 27.2443 22.6258 29.0995 24.9062 29.0995ZM33.1668 4.10162C33.1668 3.31236 33.8085 2.67032 34.5975 2.67032H40.4025C41.1915 2.67032 41.8333 3.31236 41.8333 4.10162V5.84244H33.1669V4.10162H33.1668ZM47.6273 15.6825H46.7676V14.474C46.7676 13.8671 46.2758 13.3754 45.6689 13.3754C45.0621 13.3754 44.5703 13.8671 44.5703 14.474V15.6825H30.4297V14.474C30.4297 13.8671 29.9378 13.3754 29.3311 13.3754C28.7244 13.3754 28.2325 13.8671 28.2325 14.474V15.6825H27.3726C24.9439 15.6825 22.968 13.7066 22.968 11.2779V9.97813C22.968 8.90924 23.8375 8.0397 24.9064 8.0397H50.0937C51.1625 8.0397 52.0321 8.90938 52.0321 9.97813V11.2779C52.0321 13.7066 50.0561 15.6825 47.6273 15.6825Z" fill="white"/>
</g>
<defs>
<clipPath id="clip0">
<rect width="75" height="75" fill="white"/>
</clipPath>
</defs>
</svg>
