<svg width="31" height="35" viewBox="0 0 31 35" fill="none" xmlns="http://www.w3.org/2000/svg">
<g clip-path="url(#clip0)">
<path d="M15.5 13.8537C14.7701 13.854 14.0566 14.0681 13.4498 14.4689C12.843 14.8697 12.3702 15.4393 12.091 16.1056C11.8119 16.7719 11.739 17.505 11.8815 18.2122C12.0241 18.9194 12.3757 19.569 12.892 20.0788C13.4082 20.5886 14.0659 20.9357 14.7818 21.0763C15.4978 21.2169 16.2398 21.1446 16.9142 20.8686C17.5885 20.5926 18.1649 20.1252 18.5704 19.5256C18.9759 18.926 19.1923 18.2211 19.1923 17.5C19.1916 16.5329 18.8023 15.6057 18.11 14.922C17.4176 14.2383 16.4789 13.8541 15.5 13.8537ZM24.1295 11.051C23.9416 10.5806 23.6578 10.1533 23.2959 9.7957C22.9339 9.4381 22.5014 9.15779 22.0252 8.97217C20.5721 8.40547 17.1123 8.53262 15.5 8.53262C13.8877 8.53262 10.4314 8.40068 8.97408 8.97217C8.4979 9.15779 8.06541 9.4381 7.70343 9.7957C7.34146 10.1533 7.05772 10.5806 6.86982 11.051C6.29687 12.4865 6.42489 15.9079 6.42489 17.4993C6.42489 19.0907 6.29687 22.508 6.87259 23.9483C7.06049 24.4188 7.34423 24.846 7.7062 25.2036C8.06818 25.5612 8.50067 25.8415 8.97685 26.0271C10.43 26.5938 13.8898 26.4667 15.5028 26.4667C17.1157 26.4667 20.5707 26.5986 22.028 26.0271C22.5042 25.8415 22.9367 25.5612 23.2986 25.2036C23.6606 24.846 23.9444 24.4188 24.1323 23.9483C24.71 22.5128 24.5772 19.0914 24.5772 17.5C24.5772 15.9086 24.71 12.492 24.1323 11.0517L24.1295 11.051ZM15.5 23.1055C14.3778 23.1055 13.2807 22.7767 12.3476 22.1608C11.4145 21.5448 10.6873 20.6694 10.2578 19.6451C9.82835 18.6209 9.71598 17.4938 9.93492 16.4064C10.1539 15.3191 10.6943 14.3203 11.4878 13.5363C12.2813 12.7524 13.2924 12.2185 14.393 12.0022C15.4937 11.786 16.6346 11.897 17.6714 12.3212C18.7082 12.7455 19.5944 13.464 20.2178 14.3858C20.8413 15.3076 21.1741 16.3913 21.1741 17.5C21.175 18.2364 21.0289 18.9657 20.744 19.6462C20.4592 20.3267 20.0413 20.945 19.5142 21.4657C18.9872 21.9864 18.3613 22.3992 17.6725 22.6806C16.9836 22.962 16.2454 23.1064 15.5 23.1055ZM21.408 12.9678C21.146 12.9679 20.8899 12.8913 20.672 12.7476C20.4541 12.6039 20.2842 12.3996 20.1839 12.1606C20.0835 11.9215 20.0572 11.6584 20.1082 11.4045C20.1593 11.1507 20.2854 10.9175 20.4705 10.7344C20.6557 10.5514 20.8917 10.4267 21.1487 10.3762C21.4056 10.3256 21.6719 10.3515 21.914 10.4505C22.156 10.5495 22.3629 10.7172 22.5085 10.9324C22.654 11.1476 22.7317 11.4006 22.7317 11.6594C22.7324 11.8312 22.6988 12.0016 22.6328 12.1606C22.5667 12.3195 22.4695 12.4641 22.3468 12.5859C22.2241 12.7077 22.0782 12.8044 21.9176 12.8704C21.757 12.9364 21.5847 12.9704 21.4108 12.9705L21.408 12.9678ZM27.6786 2.1875H3.32143C2.44053 2.1875 1.59571 2.5332 0.972824 3.14856C0.349935 3.76391 0 4.59851 0 5.46875L0 29.5312C0 30.4015 0.349935 31.2361 0.972824 31.8514C1.59571 32.4668 2.44053 32.8125 3.32143 32.8125H27.6786C28.5595 32.8125 29.4043 32.4668 30.0272 31.8514C30.6501 31.2361 31 30.4015 31 29.5312V5.46875C31 4.59851 30.6501 3.76391 30.0272 3.14856C29.4043 2.5332 28.5595 2.1875 27.6786 2.1875ZM26.4939 22.0117C26.4047 23.7638 25.9999 25.3162 24.7052 26.5918C23.4105 27.8674 21.8405 28.2755 20.069 28.3589C18.2416 28.4607 12.7626 28.4607 10.9351 28.3589C9.16161 28.2707 7.59569 27.8701 6.29895 26.5918C5.00221 25.3135 4.59464 23.7604 4.51022 22.0117C4.40712 20.2057 4.40712 14.7923 4.51022 12.9883C4.59949 11.2362 4.99944 9.68379 6.29895 8.4082C7.59846 7.13262 9.16853 6.7293 10.9351 6.6459C12.7626 6.54404 18.2416 6.54404 20.069 6.6459C21.8425 6.73408 23.4133 7.13467 24.7052 8.41299C25.9971 9.69131 26.4095 11.2444 26.4939 12.9965C26.597 14.7957 26.597 20.2043 26.4939 22.0117Z" fill="#77917E"/>
</g>
<defs>
<clipPath id="clip0">
<rect width="31" height="35" fill="white"/>
</clipPath>
</defs>
</svg>
