<svg width="31" height="34" viewBox="0 0 31 34" fill="none" xmlns="http://www.w3.org/2000/svg">
<g clip-path="url(#clip0)">
<path d="M27.6786 2.125H3.32143C2.44053 2.125 1.59571 2.46083 0.972824 3.0586C0.349935 3.65637 0 4.46712 0 5.3125L0 28.6875C0 29.5329 0.349935 30.3436 0.972824 30.9414C1.59571 31.5392 2.44053 31.875 3.32143 31.875H12.8186V21.7607H8.45926V17H12.8186V13.3716C12.8186 9.24441 15.3789 6.96469 19.3003 6.96469C21.1783 6.96469 23.1421 7.28609 23.1421 7.28609V11.3369H20.9783C18.8463 11.3369 18.1814 12.6066 18.1814 13.9088V17H22.9407L22.1795 21.7607H18.1814V31.875H27.6786C28.5595 31.875 29.4043 31.5392 30.0272 30.9414C30.6501 30.3436 31 29.5329 31 28.6875V5.3125C31 4.46712 30.6501 3.65637 30.0272 3.0586C29.4043 2.46083 28.5595 2.125 27.6786 2.125Z" fill="#854777"/>
</g>
<defs>
<clipPath id="clip0">
<rect width="31" height="34" fill="white"/>
</clipPath>
</defs>
</svg>
