<svg width="29" height="29" viewBox="0 0 29 29" fill="none" xmlns="http://www.w3.org/2000/svg">
<path fill-rule="evenodd" clip-rule="evenodd" d="M4.83268 4.8335H24.166C25.4952 4.8335 26.5827 5.921 26.5827 7.25016V21.7502C26.5827 23.0793 25.4952 24.1668 24.166 24.1668H4.83268C3.50352 24.1668 2.41602 23.0793 2.41602 21.7502V7.25016C2.41602 5.921 3.50352 4.8335 4.83268 4.8335ZM15.7801 14.911L23.6826 9.96894C23.9847 9.7756 24.166 9.44935 24.166 9.09893C24.166 8.28935 23.2839 7.80602 22.5951 8.22893L14.4993 13.2919L6.40347 8.22893C5.71472 7.80602 4.83264 8.28935 4.83264 9.09893C4.83264 9.44935 5.01389 9.7756 5.31597 9.96894L13.2185 14.911C14.0039 15.4064 14.9947 15.4064 15.7801 14.911Z" fill="black" fill-opacity="0.54"/>
</svg>
