<svg width="75" height="75" viewBox="0 0 75 75" fill="none" xmlns="http://www.w3.org/2000/svg">
<g clip-path="url(#clip0)">
<path d="M47.3487 62.6514L52.3487 67.6514C53.1025 68.406 54.1421 68.8038 55.2071 68.7454C56.2721 68.6869 57.2619 68.1777 57.9286 67.3451L67.9286 54.8451C69.2231 53.2283 68.9617 50.8683 67.3449 49.5739C65.7281 48.2794 63.3681 48.5408 62.0736 50.1576L54.6899 59.3876L52.6536 57.3501C51.1694 55.9338 48.8341 55.9338 47.3499 57.3501C45.8865 58.814 45.8859 61.1868 47.3487 62.6514ZM49.1161 59.1164C49.6043 58.6284 50.3955 58.6284 50.8837 59.1164L53.9086 62.1414C54.16 62.3929 54.5065 62.5254 54.8616 62.5058C55.2166 62.4863 55.5465 62.3164 55.7686 62.0389L64.0186 51.7189C64.2978 51.3701 64.7417 51.1967 65.1834 51.264C65.625 51.3314 65.9971 51.6292 66.1596 52.0453C66.3221 52.4614 66.2503 52.9326 65.9711 53.2814L55.9711 65.7814C55.749 66.059 55.4191 66.2288 55.0641 66.2483C54.709 66.2679 54.3625 66.1354 54.1111 65.8839L49.1112 60.8839C48.6246 60.3944 48.6268 59.6031 49.1161 59.1164Z" fill="white"/>
<path d="M1.25 75H57.5C66.8618 75.0095 74.5731 67.6494 74.9996 58.2973C75.4261 48.9452 68.4168 40.9137 59.0929 40.071C49.7691 39.2284 41.4334 45.873 40.1762 55.15C39.2699 54.4404 38.7432 53.3511 38.75 52.2V49.7C38.7353 48.6523 39.1748 47.6494 39.955 46.95C43.1411 44.31 44.9853 40.3877 44.9862 36.25C46.3169 36.257 47.5954 35.7333 48.5388 34.7948C49.4821 33.8564 50.0125 32.5806 50.0125 31.25V27.5C50.0157 26.0647 49.3992 24.6978 48.3213 23.75C49.62 18.0725 48.1575 11.64 42.7087 9.52125C40.5062 2.8525 33.515 0 26.5 0C14.7638 0 8.97625 11.93 12.0362 23.4613C10.7448 24.4008 9.98278 25.903 9.9875 27.5V31.25C9.98748 32.5806 10.5179 33.8564 11.4612 34.7948C12.4046 35.7333 13.6831 36.257 15.0138 36.25C15.0165 40.384 16.8591 44.3023 20.0413 46.9413C20.8252 47.642 21.2663 48.6486 21.25 49.7V52.2C21.2596 53.7613 20.2923 55.1622 18.8288 55.7063L6.6425 60.3563C2.65245 61.8947 0.0150938 65.7237 0 70V73.75C0 74.4404 0.559644 75 1.25 75ZM57.5 42.5C65.7843 42.5 72.5 49.2157 72.5 57.5C72.5 65.7843 65.7843 72.5 57.5 72.5C49.2157 72.5 42.5 65.7843 42.5 57.5C42.509 49.2194 49.2194 42.509 57.5 42.5ZM2.5 70C2.51121 66.7598 4.50932 63.8584 7.5325 62.6925L19.7162 58.045C22.1398 57.1179 23.743 54.7949 23.75 52.2V49.7C23.7723 47.9114 23.006 46.2037 21.655 45.0313C18.8374 42.6871 17.2962 39.1471 17.5 35.4875C17.5951 35.0173 17.4785 34.5291 17.1812 34.1525C16.7325 33.6663 16.3525 33.75 14.9875 33.75C13.6068 33.75 12.4875 32.6307 12.4875 31.25V27.5C12.4842 26.8359 12.7465 26.1981 13.216 25.7285C13.6856 25.259 14.3234 24.9967 14.9875 25C15.6779 25 16.2375 24.4404 16.2375 23.75C16.2375 23.0596 15.6779 22.5 14.9875 22.5C14.7903 22.5081 14.5937 22.5277 14.3988 22.5588C11.9075 12.6625 16.4788 2.5 26.5 2.5C32.55 2.5 39.0737 4.9825 40.4588 10.7888C40.6525 11.6088 41.3887 11.6963 41.7987 11.8525C45.8988 13.4388 46.7812 18.2438 45.9775 22.62C45.6627 22.5361 45.3383 22.4941 45.0125 22.495C44.3221 22.495 43.7625 23.0546 43.7625 23.745C43.7625 24.4354 44.3221 24.995 45.0125 24.995C46.3932 24.995 47.5125 26.1143 47.5125 27.495V31.245C47.5125 32.6257 46.3932 33.745 45.0125 33.745C43.7437 33.745 43.2875 33.64 42.8188 34.1475C42.5208 34.5257 42.4043 35.0157 42.5 35.4875C42.7037 39.1486 41.161 42.6898 38.3413 45.0338C36.9923 46.2063 36.2275 47.9128 36.25 49.7V52.2C36.2616 54.6861 37.7411 56.9305 40.0212 57.9213C40.1689 63.9193 43.3819 69.4227 48.5325 72.5H2.5V70Z" fill="white"/>
</g>
<defs>
<clipPath id="clip0">
<rect width="75" height="75" fill="white"/>
</clipPath>
</defs>
</svg>
