<svg width="26" height="26" viewBox="0 0 26 26" fill="none" xmlns="http://www.w3.org/2000/svg">
<path d="M17.6917 22C17.5068 21.9995 17.3225 21.9798 17.1418 21.9414C13.7031 21.2522 10.5352 19.6364 8.00256 17.2798C5.524 14.9181 3.80498 11.9111 3.0535 8.62261C2.96489 8.21277 2.98664 7.78773 3.11665 7.3884C3.24666 6.98906 3.48057 6.62885 3.79586 6.34244L5.99544 4.29135C6.10779 4.18842 6.24128 4.10959 6.3872 4.06002C6.53311 4.01045 6.68818 3.99125 6.84228 4.00367C7.00206 4.01982 7.15625 4.06968 7.294 4.14976C7.43176 4.22983 7.54973 4.33817 7.63963 4.46716L10.3891 8.40418C10.4922 8.55694 10.542 8.73774 10.5311 8.91995C10.5202 9.10217 10.4492 9.27619 10.3286 9.41641L8.94838 11.0147C9.49809 12.1933 10.2766 13.2586 11.2414 14.1526C12.2001 15.0789 13.3332 15.8186 14.5793 16.3315L16.2895 15.0156C16.4331 14.9056 16.6079 14.8406 16.7906 14.8292C16.9733 14.8178 17.1553 14.8605 17.3123 14.9517L21.464 17.5515C21.6065 17.6339 21.7279 17.7465 21.8191 17.8808C21.9102 18.0151 21.9689 18.1677 21.9906 18.3271C22.0123 18.4865 21.9964 18.6485 21.9443 18.8011C21.8921 18.9538 21.805 19.093 21.6895 19.2084L19.5449 21.2648C19.3013 21.4996 19.0121 21.6855 18.6941 21.8117C18.376 21.9378 18.0354 22.0018 17.6917 22ZM6.7543 5.05851L4.55471 7.1096C4.37734 7.26972 4.24605 7.47181 4.17374 7.69599C4.10142 7.92017 4.09059 8.15873 4.14229 8.3882C4.84106 11.474 6.4473 14.2976 8.76692 16.518C11.1503 18.735 14.1315 20.2549 17.3673 20.9025C17.6122 20.9521 17.866 20.9421 18.106 20.8732C18.3459 20.8044 18.5644 20.679 18.742 20.5083L20.8866 18.4518L16.8779 15.9426L15.0412 17.3597C14.9709 17.4136 14.8881 17.4501 14.7999 17.4658C14.7117 17.4816 14.6209 17.4763 14.5353 17.4503C13.0103 16.9059 11.6283 16.0418 10.4881 14.9197C9.30876 13.8527 8.39333 12.5415 7.8101 11.0839C7.78542 10.9957 7.7846 10.9028 7.80772 10.8141C7.83083 10.7255 7.8771 10.6441 7.94207 10.5778L9.42679 8.85702L6.7543 5.05851Z" fill="#FFFAF4"/>
</svg>
