<svg width="29" height="29" viewBox="0 0 29 29" fill="none" xmlns="http://www.w3.org/2000/svg">
<path d="M14.5 3.625H25.375V12.0645H18.125L14.5 15.6895V3.625ZM24.1855 18.748C24.5254 18.748 24.8086 18.8613 25.0352 19.0879C25.2617 19.3145 25.375 19.5977 25.375 19.9375V24.1855C25.375 24.5254 25.2617 24.8086 25.0352 25.0352C24.8086 25.2617 24.5254 25.375 24.1855 25.375C18.5215 25.375 13.6693 23.3737 9.62891 19.3711C5.6263 15.3307 3.625 10.4785 3.625 4.81445C3.625 4.47461 3.73828 4.19141 3.96484 3.96484C4.19141 3.73828 4.47461 3.625 4.81445 3.625H9.0625C9.40234 3.625 9.68555 3.73828 9.91211 3.96484C10.1387 4.19141 10.252 4.47461 10.252 4.81445C10.252 6.32487 10.4785 7.75977 10.9316 9.11914C11.0827 9.61003 10.9883 10.0254 10.6484 10.3652L7.98633 13.0273C9.79883 16.5391 12.4609 19.2012 15.9727 21.0137L18.6348 18.3516C18.9746 18.0117 19.39 17.9173 19.8809 18.0684C21.2402 18.5215 22.6751 18.748 24.1855 18.748Z" fill="#666666"/>
</svg>
