<svg width="75" height="75" viewBox="0 0 75 75" fill="none" xmlns="http://www.w3.org/2000/svg">
<path d="M72.6562 8.20312H69.1406V7.03125C69.1406 6.3832 68.6156 5.85938 67.9688 5.85938H41.0156V4.6875C41.0156 2.74922 39.4383 1.17188 37.5 1.17188C35.5617 1.17188 33.9844 2.74922 33.9844 4.6875V5.85938H7.03125C6.38438 5.85938 5.85938 6.3832 5.85938 7.03125V8.20312H2.34375C1.69688 8.20312 1.17188 8.72695 1.17188 9.375V70.3125C1.17188 70.9605 1.69688 71.4844 2.34375 71.4844H34.2C34.6852 72.8449 35.9742 73.8281 37.5 73.8281C39.0258 73.8281 40.3148 72.8449 40.8 71.4844H72.6562C73.3031 71.4844 73.8281 70.9605 73.8281 70.3125V9.375C73.8281 8.72695 73.3031 8.20312 72.6562 8.20312ZM66.7969 8.20312V59.7656H41.0156V8.20312H66.7969ZM66.7969 62.1094V64.4531H41.0156V62.1094H66.7969ZM33.9844 8.20312V59.7656H8.20312V8.20312H33.9844ZM8.20312 62.1094H33.9844V64.4531H8.20312V62.1094ZM3.51562 10.5469H5.85938V65.625C5.85938 66.273 6.38438 66.7969 7.03125 66.7969H33.9844V69.1406H3.51562V10.5469ZM38.6719 70.3125C38.6719 70.9594 38.1457 71.4844 37.5 71.4844C36.8543 71.4844 36.3281 70.9594 36.3281 70.3125V4.6875C36.3281 4.04063 36.8543 3.51562 37.5 3.51562C38.1457 3.51562 38.6719 4.04063 38.6719 4.6875V70.3125ZM71.4844 69.1406H41.0156V66.7969H67.9688C68.6156 66.7969 69.1406 66.273 69.1406 65.625V10.5469H71.4844V69.1406Z" fill="white"/>
<path d="M11.7188 29.2969H30.4688C31.1156 29.2969 31.6406 28.773 31.6406 28.125V14.0625C31.6406 13.4145 31.1156 12.8906 30.4688 12.8906H11.7188C11.0719 12.8906 10.5469 13.4145 10.5469 14.0625V28.125C10.5469 28.773 11.0719 29.2969 11.7188 29.2969ZM22.9523 26.9531H14.5477L18.75 22.7508L22.9523 26.9531ZM26.2664 26.9531L23.9227 24.6094L25.7812 22.7508L29.2969 26.2664V26.9531H26.2664ZM29.2969 22.9523L26.6098 20.2652C26.1516 19.807 25.4109 19.807 24.9527 20.2652L22.2656 22.9523L19.5785 20.2652C19.1203 19.807 18.3797 19.807 17.9215 20.2652L12.8906 25.2961V19.7063C13.2586 19.8375 13.65 19.9219 14.0625 19.9219C16.0008 19.9219 17.5781 18.3445 17.5781 16.4062C17.5781 15.9938 17.4938 15.6023 17.3625 15.2344H29.2969V22.9523ZM14.0625 15.2344C14.7082 15.2344 15.2344 15.7594 15.2344 16.4062C15.2344 17.0531 14.7082 17.5781 14.0625 17.5781C13.4168 17.5781 12.8906 17.0531 12.8906 16.4062C12.8906 15.7594 13.4168 15.2344 14.0625 15.2344Z" fill="white"/>
<path d="M44.0824 22.1766C44.2277 22.2375 44.3801 22.2656 44.5312 22.2656C44.8359 22.2656 45.1359 22.1461 45.3598 21.9223L45.7031 21.5789V53.9062C45.7031 54.5543 46.2281 55.0781 46.875 55.0781H55.7648L55.4215 55.4215C55.0863 55.7566 54.9855 56.2605 55.1672 56.6988C55.3488 57.1371 55.7766 57.4219 56.25 57.4219H63.2812C63.9281 57.4219 64.4531 56.898 64.4531 56.25V49.2188C64.4531 48.7453 64.1672 48.3164 63.7301 48.1359C63.2906 47.9531 62.7879 48.0551 62.4527 48.3902L62.1094 48.7336V16.4062C62.1094 15.7582 61.5844 15.2344 60.9375 15.2344H52.0477L52.391 14.891C52.7262 14.5559 52.827 14.052 52.6453 13.6137C52.4637 13.1754 52.0359 12.8906 51.5625 12.8906H44.5312C43.8844 12.8906 43.3594 13.4145 43.3594 14.0625V21.0938C43.3594 21.5672 43.6453 21.9961 44.0824 22.1766ZM62.1094 55.0781H59.0789L62.1094 52.0477V55.0781ZM58.1086 52.7344H48.0469V45.7031H59.7656V51.0773L58.1086 52.7344ZM59.7656 17.5781V43.3594H48.0469V19.2352L49.7039 17.5781H59.7656ZM45.7031 15.2344H48.7336L45.7031 18.2648V15.2344Z" fill="white"/>
<path d="M11.2699 40.9266C11.4152 40.9875 11.5676 41.0156 11.7188 41.0156C12.0234 41.0156 12.3234 40.8961 12.5473 40.6723L12.8906 40.3289V53.9062C12.8906 54.5543 13.4156 55.0781 14.0625 55.0781H22.9523L22.609 55.4215C22.2738 55.7566 22.173 56.2605 22.3547 56.6988C22.5363 57.1371 22.9641 57.4219 23.4375 57.4219H30.4688C31.1156 57.4219 31.6406 56.898 31.6406 56.25V49.2188C31.6406 48.7453 31.3547 48.3164 30.9176 48.1359C30.4781 47.9531 29.9754 48.0551 29.6402 48.3902L29.2969 48.7336V35.1562C29.2969 34.5082 28.7719 33.9844 28.125 33.9844H19.2352L19.5785 33.641C19.9137 33.3059 20.0145 32.802 19.8328 32.3637C19.6512 31.9254 19.2234 31.6406 18.75 31.6406H11.7188C11.0719 31.6406 10.5469 32.1645 10.5469 32.8125V39.8438C10.5469 40.3172 10.8328 40.7461 11.2699 40.9266ZM29.2969 55.0781H26.2664L29.2969 52.0477V55.0781ZM25.2961 52.7344H15.2344V48.0469H26.9531V51.0773L25.2961 52.7344ZM26.9531 36.3281V45.7031H15.2344V37.9852L16.8914 36.3281H26.9531ZM12.8906 33.9844H15.9211L12.8906 37.0148V33.9844Z" fill="white"/>
</svg>
