<svg width="29" height="29" viewBox="0 0 29 29" fill="none" xmlns="http://www.w3.org/2000/svg">
<path fill-rule="evenodd" clip-rule="evenodd" d="M6.04102 11.1952C6.04102 6.5189 9.8231 2.73682 14.4994 2.73682C19.1756 2.73682 22.9577 6.5189 22.9577 11.1952C22.9577 16.2339 17.6169 23.1818 15.4298 25.8281C14.9464 26.4081 14.0644 26.4081 13.581 25.8281C11.3818 23.1818 6.04102 16.2339 6.04102 11.1952ZM11.4785 11.1952C11.4785 12.8626 12.8318 14.216 14.4993 14.216C16.1668 14.216 17.5202 12.8626 17.5202 11.1952C17.5202 9.52765 16.1668 8.17432 14.4993 8.17432C12.8318 8.17432 11.4785 9.52765 11.4785 11.1952Z" fill="black" fill-opacity="0.54"/>
</svg>
