<svg width="75" height="75" viewBox="0 0 75 75" fill="none" xmlns="http://www.w3.org/2000/svg">
<g clip-path="url(#clip0)">
<path d="M73.6714 32.1298C72.8938 30.9556 71.715 30.1465 70.3446 29.8398C71.2287 28.149 71.1926 26.0393 70.0665 24.3392C69.2654 23.129 68.0569 22.3474 66.7414 22.0516C66.976 21.6041 67.1494 21.1211 67.253 20.6119C67.5402 19.1957 67.2598 17.7526 66.4616 16.5481C65.684 15.3733 64.5052 14.5643 63.1348 14.2581C64.0189 12.5673 63.9828 10.4575 62.8567 8.75694C61.2105 6.27071 57.8471 5.58693 55.3603 7.23373L49.9758 10.7997C47.1056 9.34402 44.0529 8.31119 40.8846 7.72297C39.8833 6.20262 38.7188 4.78927 37.4153 3.52584L35.1877 1.36691C33.5564 -0.214661 30.9981 -0.452126 29.1041 0.802719C26.8633 2.28645 26.2476 5.31685 27.7313 7.5576C27.7897 7.64629 27.8469 7.73556 27.9036 7.82482C20.6017 9.30225 13.9469 13.1772 9.02138 18.8552C3.67642 25.0173 0.732422 32.9091 0.732422 41.0768C0.732422 42.6424 0.839424 44.2108 1.05114 45.7374C2.6825 57.6055 10.5881 67.8331 21.682 72.4296C25.7961 74.1348 30.1615 75 34.655 75C41.7715 75 48.5836 72.8204 54.3555 68.6977C60.002 64.6637 64.2266 59.0967 66.5732 52.5987C66.7924 51.9933 66.4782 51.3244 65.8728 51.1058C65.2669 50.8873 64.5985 51.2008 64.3799 51.8068C62.1947 57.8579 58.2596 63.042 52.9993 66.7997C47.6258 70.6386 41.2823 72.6677 34.655 72.6677C31.2287 72.6677 27.883 72.1269 24.6809 71.0603L34.1692 64.777C34.1698 64.7764 34.1704 64.7764 34.1709 64.7758C34.1715 64.7758 34.1715 64.7752 34.1721 64.7747L42.0576 59.5527H42.0582C42.766 59.0835 43.2495 58.3671 43.4189 57.5346C43.5883 56.702 43.4235 55.8529 42.9543 55.145L42.8501 54.9871L44.3819 53.9726C45.4749 53.2487 46.7892 52.9649 48.0835 53.1726C49.9575 53.4736 51.8607 53.0616 53.4422 52.0139L66.1475 43.6002C66.0605 44.7023 65.9174 45.7981 65.7178 46.8755C65.5999 47.509 66.0182 48.1178 66.6516 48.2351C66.7231 48.2488 66.7952 48.2551 66.8656 48.2551C67.4166 48.2551 67.9064 47.8626 68.0106 47.3012C68.3339 45.5623 68.5198 43.781 68.5679 41.9975L72.1482 39.6263C73.3527 38.8286 74.1749 37.6092 74.4622 36.1936C74.75 34.7774 74.4691 33.3343 73.6714 32.1298ZM47.7116 12.2989L44.1485 14.6587L43.447 12.7687C43.154 11.9802 42.8181 11.2071 42.4462 10.4507C44.2538 10.909 46.0139 11.527 47.7116 12.2989ZM10.7832 20.3836C15.5171 14.9265 21.9652 11.258 29.0194 9.98604C30.1512 12.728 30.4224 15.7916 29.7461 18.7116L26.9028 30.9951C26.4559 30.5179 25.8757 30.1889 25.2222 30.0561C24.3891 29.8862 23.5405 30.0516 22.8327 30.5208L14.7789 35.8537C14.7783 35.8537 14.7783 35.8537 14.7778 35.8543C14.7778 35.8543 14.7772 35.8543 14.7772 35.8549L3.16143 43.547C3.09792 42.7276 3.06473 41.9019 3.06473 41.0768C3.06473 33.4711 5.80616 26.1216 10.7832 20.3836ZM41.1335 57.0694C41.0883 57.2914 40.959 57.4831 40.7696 57.6084H40.7702L33.8442 62.1946L20.9896 43.024C20.6309 42.489 19.9064 42.3465 19.3714 42.7053C18.837 43.0641 18.6939 43.7879 19.0527 44.3229L31.8993 63.4826L22.0122 70.0304C12.1874 65.7331 5.15671 56.6579 3.46642 46.0979L15.0959 38.4218L16.4343 40.4188C16.6597 40.7541 17.0282 40.9355 17.4042 40.9355C17.6273 40.9355 17.8534 40.872 18.0525 40.7381C18.5875 40.3793 18.7306 39.6549 18.3718 39.1199L17.0426 37.1372L24.1207 32.4651C24.309 32.3398 24.535 32.2963 24.757 32.3415C24.979 32.3867 25.1707 32.516 25.296 32.7049L41.0099 56.4331C41.1347 56.6213 41.1787 56.8473 41.1335 57.0694ZM72.1768 35.729C72.0132 36.5346 71.5457 37.2281 70.8602 37.6819L66.7672 40.3924C66.766 40.393 66.7649 40.3942 66.7632 40.3947L52.1542 50.0696C51.0613 50.7934 49.7469 51.0778 48.4526 50.8695C46.5792 50.5691 44.6761 50.9805 43.0939 52.0282L41.5621 53.0428L28.6921 33.609L32.0189 19.238C32.8755 15.5359 32.424 11.6363 30.7921 8.2391C30.7772 8.20362 30.7612 8.16929 30.7429 8.13553C30.4293 7.49351 30.0734 6.87038 29.6757 6.26957C28.9021 5.10112 29.2231 3.52127 30.3921 2.74707C31.3797 2.09304 32.7141 2.21664 33.5644 3.04119L35.792 5.20069C38.2016 7.537 40.0927 10.4346 41.26 13.5806L42.4731 16.8485C42.4754 16.8548 42.4776 16.8599 42.4799 16.8657C42.4828 16.8731 42.4862 16.8811 42.4891 16.8885C42.4977 16.9086 42.5057 16.9269 42.5143 16.9423C42.5377 16.9915 42.5635 17.0402 42.5944 17.0865C42.9503 17.6238 43.6735 17.7709 44.2103 17.415L56.6483 9.17866C58.0628 8.24196 59.9757 8.63048 60.9124 10.045C61.8491 11.4595 61.4605 13.3723 60.0461 14.309L58.9663 15.0243C58.9663 15.0243 58.9657 15.0243 58.9652 15.0249L56.5567 16.6202C56.5533 16.6225 56.551 16.6248 56.5476 16.6265C56.5339 16.6362 56.5207 16.6454 56.5098 16.6545C56.012 17.0202 55.8833 17.7154 56.2283 18.2361C56.5836 18.7734 57.3075 18.9204 57.8448 18.5645L60.2549 16.9681C60.9398 16.5155 61.7598 16.3558 62.5649 16.5195C63.37 16.6831 64.0641 17.1506 64.5173 17.8361C64.971 18.521 65.1312 19.3422 64.9676 20.1473C64.8039 20.9529 64.3364 21.6464 63.6509 22.1002L60.1616 24.4113C59.6243 24.7667 59.4773 25.4899 59.8332 26.0272C60.0575 26.366 60.4283 26.5497 60.8065 26.5497C61.0274 26.5497 61.2511 26.4867 61.4491 26.3557L61.9893 25.9981L63.8581 24.7604C65.2731 23.8237 67.1855 24.2122 68.1222 25.6267C69.0589 27.0418 68.6703 28.9541 67.2558 29.8913L65.5129 31.0455C65.5037 31.0512 65.4946 31.0575 65.4854 31.0638L63.7665 32.2019C63.2292 32.5572 63.0822 33.2811 63.4381 33.8184C63.6624 34.1571 64.0332 34.3408 64.4114 34.3408C64.6323 34.3408 64.856 34.2779 65.054 34.1468L65.5942 33.7892C65.5942 33.7892 65.5942 33.7886 65.5947 33.7886L67.4635 32.5515C68.1485 32.0978 68.969 31.9375 69.7747 32.1018C70.5803 32.2648 71.2739 32.7329 71.7276 33.4178C72.1808 34.1028 72.3405 34.9239 72.1768 35.729Z" fill="white"/>
</g>
<defs>
<clipPath id="clip0">
<rect width="75" height="75" fill="white"/>
</clipPath>
</defs>
</svg>
