<svg width="75" height="75" fill="none" xmlns="http://www.w3.org/2000/svg"><path d="M39.844 16.406a4.688 4.688 0 100 9.377 4.688 4.688 0 000-9.377zm0 7.032a2.344 2.344 0 110-4.69 2.344 2.344 0 010 4.69zm10.546-1.172a3.515 3.515 0 100 7.03 3.515 3.515 0 000-7.03zm0 4.687a1.172 1.172 0 110-2.343 1.172 1.172 0 010 2.343zm0 8.203a3.515 3.515 0 107.031 0 3.515 3.515 0 00-7.03 0zm3.516-1.172a1.172 1.172 0 110 2.344 1.172 1.172 0 010-2.344z" fill="#fff"/><path d="M69.14 2.344H5.86a3.526 3.526 0 00-3.516 3.515v56.25a3.526 3.526 0 003.515 3.516h22.418L24.81 70.84a1.128 1.128 0 00-.059 1.195 1.154 1.154 0 001.031.621H49.22a1.153 1.153 0 001.031-.62 1.128 1.128 0 00-.059-1.196l-3.468-5.215H69.14a3.526 3.526 0 003.515-3.516V5.86a3.526 3.526 0 00-3.515-3.515zM47.028 70.313H27.973l3.129-4.688h12.796l3.13 4.688zm23.285-8.204a1.172 1.172 0 01-1.171 1.172H5.859a1.172 1.172 0 01-1.171-1.172v-3.515h65.624v3.515zm0-5.859H4.689V5.86A1.172 1.172 0 015.86 4.687h63.282a1.172 1.172 0 011.171 1.172V56.25z" fill="#fff"/><path d="M42.574 43.946L29.684 21.62a1.17 1.17 0 00-1.606-.433l-4.055 2.343a1.184 1.184 0 00-.433 1.606L36.48 47.46c.161.267.416.464.715.55.1.024.203.036.305.036.205-.003.406-.055.586-.152l4.055-2.344a1.171 1.171 0 00.433-1.605zm-4.64 1.324l-11.72-20.297 2.028-1.172 11.719 20.297-2.027 1.172zM27.188 14.941l-1.114-1.921a5.88 5.88 0 00-2.226-2.192l-4.84-2.683a1.172 1.172 0 00-1.582.433 1.187 1.187 0 00-.164.574l-.094 5.532a5.911 5.911 0 00.785 3.023l1.113 1.922a3.523 3.523 0 004.805 1.289l2.027-1.172a3.518 3.518 0 001.29-4.805zm-1.922 2.063a1.142 1.142 0 01-.54.715L22.7 18.89a1.184 1.184 0 01-1.605-.434l-1.114-1.922a3.501 3.501 0 01-.468-1.816l.058-3.574 3.141 1.734a3.504 3.504 0 011.336 1.312l1.101 1.922a1.13 1.13 0 01.118.89zm7.937-2.979a19.922 19.922 0 0121.57 31.969 7.044 7.044 0 00-6.726-4.978 1.172 1.172 0 000 2.343 4.687 4.687 0 014.688 4.688c0 .111-.008.222-.024.333a1.172 1.172 0 001.937 1.047A22.266 22.266 0 0032.422 11.81a1.173 1.173 0 00.78 2.211v.004zm-2.431 30.546a14.064 14.064 0 01-9.944-17.226 1.173 1.173 0 10-2.263-.607 16.425 16.425 0 0011.601 20.094c.099.027.2.042.303.043a1.172 1.172 0 00.302-2.304h.001z" fill="#fff"/></svg>