<svg width="31" height="34" fill="none" xmlns="http://www.w3.org/2000/svg"><g clip-path="url(#clip0)"><path d="M27.679 2.125H3.32c-.88 0-1.725.336-2.348.934A3.124 3.124 0 000 5.312v23.375c0 .846.35 1.657.973 2.254a3.393 3.393 0 002.348.934h9.498V21.761h-4.36V17h4.36v-3.628c0-4.128 2.56-6.407 6.481-6.407 1.878 0 3.842.321 3.842.321v4.05h-2.164c-2.132 0-2.797 1.27-2.797 2.573V17h4.76l-.761 4.76h-4v10.115h9.498c.88 0 1.725-.336 2.348-.934A3.124 3.124 0 0031 28.688V5.313c0-.846-.35-1.657-.973-2.254a3.394 3.394 0 00-2.348-.934z" fill="#854777"/></g><defs><clipPath id="clip0"><path fill="#fff" d="M0 0h31v34H0z"/></clipPath></defs></svg>