<svg width="31" height="35" fill="none" xmlns="http://www.w3.org/2000/svg"><g clip-path="url(#clip0)"><path d="M15.5 13.854a3.72 3.72 0 00-2.05.615c-.607.4-1.08.97-1.359 1.637a3.601 3.601 0 00-.21 2.106 3.633 3.633 0 001.011 1.867 3.733 3.733 0 004.022.79 3.682 3.682 0 001.656-1.343 3.614 3.614 0 00-.46-4.604 3.717 3.717 0 00-2.61-1.068zm8.63-2.803a3.69 3.69 0 00-.834-1.255 3.741 3.741 0 00-1.27-.824c-1.454-.567-4.914-.44-6.526-.44s-5.069-.131-6.526.44a3.74 3.74 0 00-1.27.824 3.688 3.688 0 00-.834 1.255c-.573 1.435-.445 4.857-.445 6.448 0 1.592-.128 5.009.448 6.45.187.47.471.897.833 1.255a3.74 3.74 0 001.27.823c1.454.567 4.914.44 6.527.44 1.613 0 5.068.132 6.525-.44a3.74 3.74 0 001.27-.823c.363-.358.646-.785.834-1.256.578-1.435.445-4.857.445-6.448 0-1.591.133-5.008-.445-6.448l-.003-.001zM15.5 23.105a5.724 5.724 0 01-3.152-.944 5.621 5.621 0 01-2.09-2.516 5.542 5.542 0 01-.323-3.239 5.586 5.586 0 011.553-2.87 5.696 5.696 0 012.905-1.534 5.74 5.74 0 013.278.32 5.66 5.66 0 012.547 2.064 5.557 5.557 0 01-.704 7.08 5.672 5.672 0 01-1.841 1.215 5.728 5.728 0 01-2.173.424zm5.908-10.137c-.262 0-.518-.077-.736-.22a1.312 1.312 0 01-.488-.587 1.294 1.294 0 01.287-1.427 1.33 1.33 0 011.443-.284c.242.1.449.267.595.482a1.298 1.298 0 01-.162 1.654 1.323 1.323 0 01-.936.384l-.003-.002zm6.27-10.78H3.322c-.88 0-1.725.345-2.348.96A3.261 3.261 0 000 5.469v24.063c0 .87.35 1.705.973 2.32a3.342 3.342 0 002.348.962H27.68a3.34 3.34 0 002.348-.962 3.26 3.26 0 00.973-2.32V5.47c0-.87-.35-1.705-.973-2.32a3.342 3.342 0 00-2.348-.962zm-1.184 19.824c-.09 1.752-.494 3.304-1.789 4.58-1.294 1.275-2.864 1.684-4.636 1.767-1.827.102-7.306.102-9.134 0-1.773-.088-3.34-.489-4.636-1.767-1.297-1.278-1.704-2.832-1.789-4.58-.103-1.806-.103-7.22 0-9.024.09-1.752.49-3.304 1.789-4.58 1.3-1.275 2.87-1.679 4.636-1.762 1.828-.102 7.307-.102 9.134 0 1.774.088 3.344.489 4.636 1.767 1.292 1.278 1.705 2.831 1.789 4.583.103 1.8.103 7.208 0 9.016z" fill="#77917E"/></g><defs><clipPath id="clip0"><path fill="#fff" d="M0 0h31v35H0z"/></clipPath></defs></svg>