<svg width="29" height="29" fill="none" xmlns="http://www.w3.org/2000/svg"><path d="M14.5 3.625h10.875v8.44h-7.25L14.5 15.69V3.625zm9.686 15.123c.34 0 .623.113.85.34.226.226.339.51.339.85v4.248c0 .34-.113.623-.34.85-.226.226-.51.339-.85.339-5.663 0-10.516-2.001-14.556-6.004-4.003-4.04-6.004-8.892-6.004-14.557 0-.34.113-.623.34-.85.226-.226.51-.339.85-.339h4.247c.34 0 .624.113.85.34.227.226.34.51.34.85 0 1.51.226 2.945.68 4.304.15.491.056.906-.284 1.246l-2.662 2.662c1.813 3.512 4.475 6.174 7.987 7.987l2.662-2.662c.34-.34.755-.435 1.246-.284 1.36.453 2.794.68 4.305.68z" fill="#666"/></svg>