<svg width="75" height="75" fill="none" xmlns="http://www.w3.org/2000/svg"><path d="M72.656 8.203h-3.515V7.031c0-.648-.525-1.172-1.172-1.172H41.016V4.688A3.52 3.52 0 0037.5 1.171a3.52 3.52 0 00-3.516 3.516v1.171H7.031c-.647 0-1.172.524-1.172 1.172v1.172H2.344c-.647 0-1.172.524-1.172 1.172v60.938c0 .647.525 1.171 1.172 1.171H34.2a3.51 3.51 0 003.3 2.344 3.51 3.51 0 003.3-2.344h31.856a1.17 1.17 0 001.172-1.171V9.374c0-.648-.525-1.172-1.172-1.172zm-5.86 0v51.563h-25.78V8.203h25.78zm0 53.906v2.344h-25.78V62.11h25.78zM33.985 8.203v51.563H8.204V8.203h25.78zM8.204 62.11h25.78v2.344H8.204V62.11zM3.515 10.547h2.343v55.078c0 .648.525 1.172 1.172 1.172h26.953v2.344H3.516V10.547zm35.156 59.766a1.173 1.173 0 01-2.344 0V4.686a1.173 1.173 0 012.344 0v65.626zm32.812-1.172H41.016v-2.344h26.953c.647 0 1.172-.524 1.172-1.172V10.547h2.343V69.14z" fill="#fff"/><path d="M11.719 29.297h18.75c.647 0 1.172-.524 1.172-1.172V14.062c0-.647-.525-1.171-1.172-1.171h-18.75c-.647 0-1.172.524-1.172 1.171v14.063c0 .648.525 1.172 1.172 1.172zm11.233-2.344h-8.404l4.202-4.202 4.202 4.202zm3.314 0l-2.343-2.344 1.858-1.858 3.516 3.515v.687h-3.03zm3.03-4l-2.686-2.688a1.17 1.17 0 00-1.657 0l-2.687 2.687-2.688-2.687a1.17 1.17 0 00-1.656 0l-5.031 5.031v-5.59a3.48 3.48 0 001.171.216 3.52 3.52 0 003.516-3.516c0-.412-.084-.804-.215-1.172h11.934v7.718zm-15.233-7.719a1.173 1.173 0 010 2.344 1.173 1.173 0 010-2.344zm30.019 6.943a1.173 1.173 0 001.277-.254l.344-.344v32.327c0 .648.525 1.172 1.172 1.172h8.89l-.343.343a1.171 1.171 0 00.828 2h7.031a1.17 1.17 0 001.172-1.171v-7.031a1.173 1.173 0 00-2-.829l-.344.344V16.406c0-.648-.525-1.172-1.172-1.172h-8.89l.344-.343a1.171 1.171 0 00-.828-2H44.53c-.647 0-1.172.524-1.172 1.171v7.032c0 .473.286.902.723 1.083zM62.11 55.078h-3.03l3.03-3.03v3.03zm-4-2.344H48.047v-7.03h11.719v5.373l-1.657 1.657zm1.657-35.156V43.36h-11.72V19.235l1.658-1.657h10.062zm-14.063-2.344h3.03l-3.03 3.03v-3.03zM11.27 40.927a1.173 1.173 0 001.277-.254l.344-.344v13.577c0 .648.525 1.172 1.171 1.172h8.89l-.343.343a1.171 1.171 0 00.828 2h7.032a1.17 1.17 0 001.172-1.171v-7.031a1.173 1.173 0 00-2-.829l-.344.344V35.156c0-.648-.525-1.172-1.172-1.172h-8.89l.343-.343a1.171 1.171 0 00-.828-2h-7.031c-.647 0-1.172.523-1.172 1.172v7.03c0 .474.286.903.723 1.084zm18.027 14.151h-3.03l3.03-3.03v3.03zm-4-2.344H15.233v-4.687h11.72v3.03l-1.658 1.657zm1.656-16.406v9.375H15.234v-7.718l1.657-1.657h10.062zm-14.062-2.344h3.03l-3.03 3.03v-3.03z" fill="#fff"/></svg>