<svg xmlns="http://www.w3.org/2000/svg" viewBox="0 0 480 480"><g fill="#771867"><path d="M240 0C107.452 0 0 107.452 0 240s107.452 240 240 240c132.486-.15 239.85-107.514 240-240C480 107.452 372.548 0 240 0zm0 464C116.288 464 16 363.712 16 240S116.288 16 240 16c123.653.141 223.859 100.347 224 224 0 123.712-100.288 224-224 224z"/><path d="M181.888 98.576a8 8 0 00-11.312 11.312L300.688 240 170.576 370.112a8 8 0 005.656 13.656 8 8 0 005.656-2.344l135.768-135.768a8 8 0 000-11.312L181.888 98.576z"/></g></svg>