<svg xmlns="http://www.w3.org/2000/svg" viewBox="0 0 480 480"><path d="M240 0C107.452 0 0 107.452 0 240s107.452 240 240 240c132.486-.15 239.85-107.514 240-240C480 107.452 372.548 0 240 0zm0 464C116.288 464 16 363.712 16 240S116.288 16 240 16c123.653.141 223.859 100.347 224 224 0 123.712-100.288 224-224 224z"/><path d="M309.62 109.692a8 8 0 00-.196-11.312 8 8 0 00-11.312.196L162.344 234.344a8 8 0 000 11.312l135.768 135.768a8 8 0 1011.312-11.312L179.312 240l130.112-130.112c.067-.064.132-.13.196-.196z"/></svg>