<svg width="31" height="35" fill="none" xmlns="http://www.w3.org/2000/svg"><path d="M12.905 20.03c0 1.319-.969 1.736-2.159 1.736h-3.12v-3.617h3.183c1.287.007 2.096.534 2.096 1.88zm-.533-5.627c0-1.21-.948-1.497-2-1.497h-2.74v3.063h2.955c1.045 0 1.785-.451 1.785-1.566zm9.155 1.586c-1.266 0-2.11.78-2.194 2.03h4.305c-.118-1.264-.782-2.03-2.111-2.03zM31 5.47v24.06c0 1.812-1.488 3.282-3.321 3.282H3.32C1.488 32.813 0 31.343 0 29.53V5.47c0-1.812 1.488-3.282 3.321-3.282H27.68c1.832 0 3.32 1.469 3.32 3.282zm-12.2 7.177h5.384v-1.292h-5.383v1.293zm-2.975 7.54c0-1.647-.789-3.069-2.422-3.527 1.19-.56 1.813-1.21 1.813-2.53 0-2.61-1.972-3.246-4.248-3.246H4.705v13.125h6.443c2.415-.014 4.677-1.155 4.677-3.822zm10.47-1.011c0-2.81-1.668-5.155-4.678-5.155-2.934 0-4.92 2.174-4.92 5.032 0 2.96 1.89 4.99 4.92 4.99 2.297 0 3.785-1.019 4.505-3.2H23.79c-.256.814-1.287 1.238-2.09 1.238-1.55 0-2.36-.895-2.36-2.413h6.934c.007-.157.02-.328.02-.492z" fill="#fff"/></svg>