<svg width="75" height="75" fill="none" xmlns="http://www.w3.org/2000/svg"><g clip-path="url(#clip0)" fill="#fff"><path d="M71.455 25.396L51.749 37.142a3.446 3.446 0 00-1.451 4.183 3.685 3.685 0 01-2.763.038l-2.55-1.002a5.164 5.164 0 00-3.174-.2l-3.906.988a5.08 5.08 0 00-.445.134c-2.386-1.362-3.807-1.77-6.326-.796l-2.26.874a3.694 3.694 0 01-3.234-.27l-.755-.445a3.446 3.446 0 00-1.634-3.504L3.546 25.396C1.983 24.465 0 25.588 0 27.41v21.997c0 1.52.81 2.946 2.115 3.724l8.604 5.129c1.6.954 3.658.459 4.655-1.096l.367.217-1.115 1.554a3.864 3.864 0 00.886 5.394 3.842 3.842 0 002.928.667 3.841 3.841 0 001.567 2.561 3.854 3.854 0 002.93.664 3.864 3.864 0 005.417 2.945 3.84 3.84 0 001.38 1.821 3.87 3.87 0 005.262-.71l2.89 1.712a3.869 3.869 0 005.822-2.985l.112.066a3.84 3.84 0 002.93.419 3.84 3.84 0 002.368-1.775c.325-.55.506-1.157.537-1.776.644.18 1.327.188 1.992.018 1-.256 1.842-.887 2.368-1.775a3.846 3.846 0 00.53-1.667 3.872 3.872 0 004.831-1.591 3.873 3.873 0 00-.428-4.53l1.133-.662a3.439 3.439 0 004.2.529l2.08-1.24a1.099 1.099 0 10-1.125-1.888l-2.08 1.24a1.242 1.242 0 01-1.472-.148c-.008-.062-9.243-15.496-9.243-15.496a1.243 1.243 0 01.432-1.699L72.58 27.283c.1-.06.223.011.223.127v21.997c0 .75-.4 1.453-1.043 1.836l-2.077 1.238a1.098 1.098 0 101.125 1.888l2.077-1.238A4.355 4.355 0 0075 49.407V27.41c0-1.82-1.98-2.947-3.545-2.014zM42.35 42.29a2.982 2.982 0 011.832.116l2.555 1.003a5.87 5.87 0 004.643-.161l7.491 12.644-1.214.71a5.8 5.8 0 00-.633.433l-16.021-9.488a1.098 1.098 0 00-1.659.946v.22c0 .782-.304 1.517-.857 2.07a2.905 2.905 0 01-2.067.855.245.245 0 01-.239-.239v-5.214c0-1.136.636-2.15 1.61-2.658a1.1 1.1 0 00.14-.069c.163-.074.335-.135.513-.18l3.906-.988zM12.786 56.509a1.234 1.234 0 01-.942-.137L3.24 51.243a2.147 2.147 0 01-1.043-1.836V27.41c0-.024 0-.086.075-.128a.149.149 0 01.074-.022.14.14 0 01.074.023l19.707 11.746c.586.35.78 1.112.432 1.7l-9.011 15.21c-.17.285-.44.488-.762.57zm5.25 6.327a1.657 1.657 0 01-1.243-.291 1.658 1.658 0 01-.674-1.085c-.072-.44.032-.882.291-1.244l1.568-2.183a1.66 1.66 0 01.122-.15 1.19 1.19 0 00.093-.095 1.671 1.671 0 012.113-.137 1.67 1.67 0 01.383 2.328l-.003.004-1.565 2.18c-.26.361-.645.6-1.085.673zm3.253 2.936a1.657 1.657 0 01-.674-1.085c-.072-.44.031-.881.291-1.243l1.568-2.184 1.73-2.41a1.658 1.658 0 011.358-.695 1.67 1.67 0 011.352 2.642l-3.297 4.593a1.67 1.67 0 01-2.328.382zm5.739 3.519a1.67 1.67 0 01-1.626-2.62l.003-.004 3.294-4.589a1.67 1.67 0 013.002.703c.072.44-.03.881-.29 1.243l-3.298 4.593c-.26.362-.646.601-1.085.674zm3.988 1.911a1.657 1.657 0 01-.674-1.085c-.072-.44.031-.881.291-1.243l.004-.005 1.094-1.524a1.67 1.67 0 012.327-.38 1.67 1.67 0 01.382 2.328l-.627.873a.877.877 0 00-.019.027l-.45.627a1.67 1.67 0 01-2.328.382zm26.47-9.4a1.671 1.671 0 01-2.287.586l-2.54-1.505c-.001 0-.002 0-.003-.002l-7.867-4.66a1.099 1.099 0 10-1.12 1.89l7.87 4.663h.001a1.672 1.672 0 01-.438 3.053c-.432.11-.881.047-1.265-.18l-2.07-1.227-.005-.003-.003-.002-5.795-3.433a1.098 1.098 0 10-1.12 1.89l5.795 3.433.003.002c.384.227.656.59.767 1.022.11.432.046.882-.181 1.265a1.66 1.66 0 01-1.023.767 1.66 1.66 0 01-1.264-.181l-3.108-1.841-.005-.004-2.273-1.346a1.099 1.099 0 00-1.12 1.89l2.273 1.347.003.002a1.67 1.67 0 01.582 2.285 1.672 1.672 0 01-2.287.585l-2.72-1.61a3.87 3.87 0 00-.946-5.309 3.844 3.844 0 00-1.697-.684 3.84 3.84 0 00.227-2.07 3.84 3.84 0 00-1.56-2.514 3.856 3.856 0 00-2.93-.664 3.855 3.855 0 00-1.566-2.563 3.841 3.841 0 00-2.881-.675c-.851.14-1.614.55-2.193 1.17a3.844 3.844 0 00-1.152-1.313 3.872 3.872 0 00-4.313-.132l-.78-.46 7.476-12.617.552.326a5.888 5.888 0 005.144.428l2.26-.875c1.352-.522 2.077-.546 3.442.117a5.188 5.188 0 00-1.385 3.533V51.4a2.438 2.438 0 002.433 2.436h.003a5.089 5.089 0 003.62-1.499 5.1 5.1 0 001.26-2.059l15.303 9.062c.05.03.103.055.156.076.044.037.091.07.142.1a1.671 1.671 0 01.585 2.287z"/><path d="M24.906 29.1h25.188a4.14 4.14 0 004.135-4.136V9.978a4.14 4.14 0 00-4.136-4.136H44.03v-1.74A3.632 3.632 0 0040.402.473h-5.805c-2 0-3.628 1.628-3.628 3.629v1.74h-6.063a4.14 4.14 0 00-4.136 4.136v8.255a1.099 1.099 0 102.198 0v-2.042a6.576 6.576 0 004.404 1.689h.86v1.208a1.099 1.099 0 102.197 0V17.88h14.14v1.208a1.098 1.098 0 102.198 0V17.88h.86c1.69 0 3.235-.64 4.405-1.689v8.773a1.94 1.94 0 01-1.939 1.938H24.906a1.94 1.94 0 01-1.938-1.938v-1.595a1.099 1.099 0 10-2.197 0v1.595a4.14 4.14 0 004.135 4.136zm8.26-24.998c0-.79.643-1.432 1.431-1.432h5.806c.788 0 1.43.642 1.43 1.432v1.74h-8.666v-1.74zm14.461 11.58h-.86v-1.208a1.098 1.098 0 10-2.197 0v1.208H30.43v-1.208a1.099 1.099 0 10-2.197 0v1.208h-.86a4.41 4.41 0 01-4.405-4.404v-1.3a1.94 1.94 0 011.938-1.938h25.188a1.94 1.94 0 011.938 1.938v1.3a4.41 4.41 0 01-4.405 4.404z"/></g><defs><clipPath id="clip0"><path fill="#fff" d="M0 0h75v75H0z"/></clipPath></defs></svg>