<svg width="75" height="75" fill="none" xmlns="http://www.w3.org/2000/svg"><g clip-path="url(#clip0)" fill="#fff"><path d="M47.349 62.651l5 5a3.75 3.75 0 005.58-.306l10-12.5a3.75 3.75 0 10-5.855-4.687l-7.384 9.23-2.036-2.038a3.841 3.841 0 00-5.304 0 3.75 3.75 0 00-.001 5.301zm1.767-3.535a1.25 1.25 0 011.768 0l3.025 3.025a1.25 1.25 0 001.86-.102l8.25-10.32a1.25 1.25 0 011.952 1.562l-10 12.5a1.25 1.25 0 01-1.86.103l-5-5a1.25 1.25 0 01.005-1.768z"/><path d="M1.25 75H57.5c9.362.01 17.073-7.35 17.5-16.703.426-9.352-6.583-17.383-15.907-18.226s-17.66 5.802-18.917 15.079a3.719 3.719 0 01-1.426-2.95v-2.5a3.625 3.625 0 011.205-2.75 13.9 13.9 0 005.031-10.7 5 5 0 005.027-5V27.5a4.979 4.979 0 00-1.692-3.75c1.299-5.677-.163-12.11-5.612-14.229C40.506 2.852 33.515 0 26.5 0 14.764 0 8.976 11.93 12.036 23.461A4.976 4.976 0 009.988 27.5v3.75a5 5 0 005.026 5 13.901 13.901 0 005.027 10.691A3.625 3.625 0 0121.25 49.7v2.5a3.716 3.716 0 01-2.421 3.506l-12.187 4.65A10.375 10.375 0 000 70v3.75C0 74.44.56 75 1.25 75zM57.5 42.5c8.284 0 15 6.716 15 15 0 8.284-6.716 15-15 15-8.284 0-15-6.716-15-15 .009-8.28 6.72-14.991 15-15zM2.5 70a7.861 7.861 0 015.032-7.307l12.184-4.648A6.276 6.276 0 0023.75 52.2v-2.5a6.081 6.081 0 00-2.095-4.669 11.578 11.578 0 01-4.155-9.544 1.632 1.632 0 00-.319-1.334c-.448-.487-.829-.403-2.194-.403a2.5 2.5 0 01-2.5-2.5V27.5a2.488 2.488 0 012.5-2.5 1.25 1.25 0 100-2.5 5.052 5.052 0 00-.588.059C11.908 12.662 16.479 2.5 26.5 2.5c6.05 0 12.574 2.482 13.959 8.289.194.82.93.907 1.34 1.063 4.1 1.587 4.982 6.392 4.178 10.768a3.707 3.707 0 00-.964-.125 1.25 1.25 0 100 2.5 2.5 2.5 0 012.5 2.5v3.75a2.5 2.5 0 01-2.5 2.5c-1.27 0-1.725-.105-2.194.403a1.639 1.639 0 00-.319 1.34 11.578 11.578 0 01-4.159 9.546A6.08 6.08 0 0036.25 49.7v2.5a6.27 6.27 0 003.771 5.721A17.484 17.484 0 0048.532 72.5H2.5V70z"/></g><defs><clipPath id="clip0"><path fill="#fff" d="M0 0h75v75H0z"/></clipPath></defs></svg>