<svg width="75" height="75" fill="none" xmlns="http://www.w3.org/2000/svg"><g clip-path="url(#clip0)"><path d="M73.671 32.13a5.372 5.372 0 00-3.326-2.29 5.412 5.412 0 00-.278-5.5 5.39 5.39 0 00-3.326-2.288c.235-.448.408-.93.512-1.44a5.374 5.374 0 00-.791-4.064 5.368 5.368 0 00-3.327-2.29c.884-1.69.848-3.8-.278-5.501a5.416 5.416 0 00-7.497-1.523L49.976 10.8a33.648 33.648 0 00-9.091-3.077 24.995 24.995 0 00-3.47-4.197l-2.227-2.16a4.902 4.902 0 00-6.084-.563 4.88 4.88 0 00-1.373 6.755c.059.088.116.178.173.267A33.937 33.937 0 001.05 45.737c1.632 11.868 9.537 22.096 20.631 26.693A33.71 33.71 0 0034.655 75c7.117 0 13.929-2.18 19.7-6.302 5.647-4.034 9.872-9.601 12.218-16.1a1.166 1.166 0 10-2.193-.791C62.195 57.857 58.26 63.042 53 66.8c-5.374 3.839-11.718 5.868-18.345 5.868-3.426 0-6.772-.541-9.974-1.608l9.488-6.283.002-.001.001-.001 7.886-5.222a3.162 3.162 0 001.36-2.018 3.158 3.158 0 00-.464-2.39l-.104-.158 1.532-1.014a5.195 5.195 0 013.702-.8 7.519 7.519 0 005.358-1.16L66.147 43.6a31.69 31.69 0 01-.43 3.276 1.166 1.166 0 102.294.425c.323-1.739.509-3.52.557-5.303l3.58-2.372a5.373 5.373 0 002.314-3.432 5.373 5.373 0 00-.79-4.064zm-25.96-19.831l-3.563 2.36-.701-1.89a24.968 24.968 0 00-1-2.318 31.3 31.3 0 015.265 1.848zm-36.928 8.085A31.595 31.595 0 0129.02 9.986a14.407 14.407 0 01.727 8.726l-2.843 12.283a3.153 3.153 0 00-1.68-.939 3.155 3.155 0 00-2.39.465l-8.054 5.333h-.001L3.16 43.548a31.583 31.583 0 017.622-23.163zm30.35 36.685a.845.845 0 01-.363.54l-6.926 4.586L20.99 43.024a1.166 1.166 0 00-1.937 1.299l12.846 19.16-9.887 6.547C12.187 65.733 5.157 56.658 3.466 46.098l11.63-7.676 1.338 1.997a1.166 1.166 0 001.938-1.3l-1.33-1.982 7.079-4.672a.846.846 0 011.175.24L41.01 56.433a.84.84 0 01.123.636zm31.044-21.34a3.056 3.056 0 01-1.317 1.953l-4.093 2.71-.004.003-14.609 9.675a5.192 5.192 0 01-3.701.8 7.523 7.523 0 00-5.36 1.158l-1.53 1.015-12.87-19.434 3.326-14.371A16.755 16.755 0 0029.676 6.27a2.545 2.545 0 01.716-3.523 2.557 2.557 0 013.172.294l2.228 2.16a22.784 22.784 0 015.468 8.38l1.213 3.268.007.017.01.023a1.14 1.14 0 00.105.198 1.164 1.164 0 001.615.328l12.438-8.236a3.08 3.08 0 014.264.866 3.08 3.08 0 01-.866 4.264l-1.08.715-2.41 1.596c-.003.002-.005.005-.008.006l-.038.028a1.165 1.165 0 001.335 1.91l2.41-1.596a3.057 3.057 0 012.31-.448c.805.163 1.5.63 1.952 1.316.454.685.614 1.506.45 2.311a3.056 3.056 0 01-1.316 1.953l-3.49 2.311a1.165 1.165 0 101.288 1.945l.54-.358 1.87-1.238a3.08 3.08 0 014.263.867 3.08 3.08 0 01-.866 4.264l-1.743 1.155c-.01.005-.018.012-.028.018l-1.718 1.138a1.166 1.166 0 101.287 1.945l.54-.358 1.87-1.238a3.053 3.053 0 012.31-.45c.806.164 1.5.632 1.954 1.317.453.685.613 1.506.449 2.311z" fill="#fff"/></g><defs><clipPath id="clip0"><path fill="#fff" d="M0 0h75v75H0z"/></clipPath></defs></svg>